# xmcd
#
# Track frame offsets: 
#        150
#        15311
#        29644
#        44606
#        59614
#        72145
#        85180
#        100278
#        114783
#        129358
#        142439
#        169406
#        195182
#        216579
#        232087
#        249701
#        286007
#
# Disc length: 4066 seconds
#
# Revision: 4
# Processed by: cddbd v1.5.2PL0 Copyright (c) Steve Scherf et al.
# Submitted via: ExactAudioCopy v0.95b4
#
DISCID=fd0fe011
DTITLE=Various Artist - 100 Years Of Jazz [CD7] - Cool Jazz - West Coast
DYEAR=1999
DGENRE=Jazz
TTITLE0=Claude Thornhill And His Orchestra - Yardbird Suite
TTITLE1=Miles Davis Orchestra - Jeru
TTITLE2=Lennie Tristano Trio - Supersonic
TTITLE3=Lennie Tristano Sextet - Wow
TTITLE4=Lennie Tristano Quartet - Yesterdays
TTITLE5=Boyd Raeburn And His Orchestra - Boyd Meets Stravinsky
TTITLE6=Stan Kenton And His Orchestra - Artistry In Rhythm
TTITLE7=Woody Herman And His Orchestra - Early Autumn
TTITLE8=Woody Herman's Second Herd - Four Brothers
TTITLE9=Buddy DeFranco And His Orchestra - A Bird In Igor's Yard
TTITLE10=Gerry Mulligan Quartet - Festive Minor
TTITLE11=Dave Brubeck Quartet - Three To Get Ready
TTITLE12=Modern Jazz Quartet - Django
TTITLE13=Joe Pass, Herb Ellis - Joe's Blues
TTITLE14=Lee Konitz Orchestra - My Own Best Friend
TTITLE15=Phil Woods Quartet - Out Of Nowhere
TTITLE16=Sonny Stitt Quartet - Streamline Stanley
EXTD=YEAR: 1999
EXTT0=
EXTT1=
EXTT2=
EXTT3=
EXTT4=
EXTT5=
EXTT6=
EXTT7=
EXTT8=
EXTT9=
EXTT10=
EXTT11=
EXTT12=
EXTT13=
EXTT14=
EXTT15=
EXTT16=
PLAYORDER=
